<svg xmlns="http://www.w3.org/2000/svg" viewBox="0 0 319.99 352.54"><defs><style>.cls-1{isolation:isolate;}.cls-2{fill:#bcbcbc;}.cls-3{fill:#d3d3d3;}.cls-4{fill:#0b4656;}.cls-5{fill:#063444;}.cls-6{fill:#4de4e8;}.cls-7{fill:#0fb1b5;}.cls-8{fill:#1cc6c6;}.cls-9{fill:#ffdc79;}.cls-10{fill:#fe5c99;}.cls-11,.cls-54,.cls-55,.cls-65{fill:#fff;}.cls-12{fill:#eaeaea;}.cls-13{opacity:0.6;}.cls-14,.cls-55{opacity:0.4;}.cls-15{fill:#076d6d;}.cls-15,.cls-19,.cls-24,.cls-43{opacity:0.5;}.cls-16,.cls-48{fill:#ededed;}.cls-17{fill:#190b05;}.cls-18{fill:#442312;}.cls-19,.cls-20,.cls-21{fill:#defffe;}.cls-20{opacity:0.75;}.cls-22{fill:#f4d0ae;}.cls-23{fill:#ffe1bd;}.cls-24,.cls-26{fill:#e9c69e;}.cls-25{fill:#232323;}.cls-27,.cls-47{fill:#efefef;}.cls-28{fill:#3a3a3a;}.cls-29{fill:#2d2d2d;}.cls-30{fill:#353535;}.cls-31{fill:#713e23;}.cls-32{fill:#474747;}.cls-33{fill:#141414;}.cls-34{fill:#022636;}.cls-35{fill:#82441d;}.cls-36{fill:#f7aa57;}.cls-37{fill:#f4b77a;}.cls-38{fill:#eca140;}.cls-39{fill:#9b5934;}.cls-40{fill:#7f391b;}.cls-41{fill:#934b32;}.cls-42{fill:#682c17;}.cls-43{fill:#595959;}.cls-44{fill:#845424;}.cls-45{fill:#e2e2e2;}.cls-45,.cls-47{opacity:0.39;}.cls-46{fill:#edcdab;}.cls-48{mix-blend-mode:color-burn;}.cls-49{fill:#dbdbdb;}.cls-50{fill:#81c5e8;}.cls-51{fill:#394356;}.cls-52{fill:#485366;}.cls-53{fill:#6a7384;}.cls-54{opacity:0.2;}.cls-56{fill:#ffd05a;}.cls-57{fill:#73aae0;}.cls-58{fill:#acd3ff;}.cls-59{fill:#779a0a;}.cls-60,.cls-61{fill:#c3d600;}.cls-61,.cls-64{opacity:0.3;}.cls-62{fill:#8ba6fc;}.cls-63,.cls-64{fill:#c9d4fe;}.cls-65{opacity:0.1;}.cls-66{fill:#00e0c1;}.cls-67{fill:#02f5d0;}.cls-68{fill:#efc356;}.cls-69{fill:#e83d83;}</style></defs><title>Asset 64</title><g class="cls-1"><g id="Layer_2" data-name="Layer 2"><g id="Layer_1-2" data-name="Layer 1"><path class="cls-2" d="M135.45,52.83l-1.09.66c-1.62,1-2.79.13-2.35-1.7h0c.2-.91.09-1.74-1.19-2a2,2,0,0,0-1.37.36,5.45,5.45,0,0,0-2.48,4,1.82,1.82,0,0,0,.08.55h0c.45,1.29-.72,3.54-2.34,4.51l-1.09.66a4.82,4.82,0,0,0-2.26,3.61V64l16.36-9.83v-.42C137.71,52.49,136.7,52.08,135.45,52.83ZM129.53,54c-.74.44-1.34.2-1.34-.53a2.83,2.83,0,0,1,1.34-2.13c.74-.45,1.33-.21,1.33.53A2.83,2.83,0,0,1,129.53,54Z"/><path class="cls-3" d="M149.43,52.7l-39.8,23.91v-1c0-3,2.46-7,5.49-8.79l28.81-17.32c3-1.82,5.5-.84,5.5,2.19Z"/><path class="cls-4" d="M176.44,38.26l-2.45-1v0a2.11,2.11,0,0,0-1.9.15l-89.46,55a6,6,0,0,0-2.85,5.09V243.3A2.46,2.46,0,0,0,81,245.47h0a2.38,2.38,0,0,0,.55.23l1.87.77.75-1.44L173,190.45a4.9,4.9,0,0,0,2.34-4.18v-147a2,2,0,0,0-.15-.74l.94.26Z"/><path class="cls-5" d="M177.67,40.19v147a4.89,4.89,0,0,1-2.33,4.17l-89.45,55a2.5,2.5,0,0,1-3.8-2.12V98.45a6,6,0,0,1,2.85-5.1l89.47-55A2.14,2.14,0,0,1,177.67,40.19Z"/><path class="cls-6" d="M174.41,43.9V186.4a1.81,1.81,0,0,1-.88,1.56l-86.9,53.41a.83.83,0,0,1-1.27-.71V98.37a2.66,2.66,0,0,1,1.27-2.27l86.29-53A1,1,0,0,1,174.41,43.9Z"/><path class="cls-7" d="M125.07,81.51v53.15a.7.7,0,0,1-.32.59L92.33,155.17a.31.31,0,0,1-.47-.27V101.83a1,1,0,0,1,.47-.85L124.52,81.2A.36.36,0,0,1,125.07,81.51Z"/><path class="cls-7" d="M125.07,144.69v5.1a.67.67,0,0,1-.32.58L92.33,170.29a.31.31,0,0,1-.47-.26v-5a1,1,0,0,1,.47-.84l32.19-19.79A.37.37,0,0,1,125.07,144.69Z"/><path class="cls-8" d="M121.68,127.92V132a.54.54,0,0,1-.26.46L95.63,148.29a.25.25,0,0,1-.38-.21v-4a.82.82,0,0,1,.38-.68l25.61-15.73A.29.29,0,0,1,121.68,127.92Z"/><path class="cls-7" d="M125.07,155.26v5.1a.67.67,0,0,1-.32.58L92.33,180.86a.31.31,0,0,1-.47-.26v-5a1,1,0,0,1,.47-.85L124.52,155A.36.36,0,0,1,125.07,155.26Z"/><path class="cls-7" d="M117.7,170.36v5.09a.69.69,0,0,1-.33.59l-25,15.39a.31.31,0,0,1-.47-.26v-5a1,1,0,0,1,.47-.85l24.82-15.25A.36.36,0,0,1,117.7,170.36Z"/><path class="cls-7" d="M160.45,138.11v5.09a.71.71,0,0,1-.33.59l-25,15.39a.31.31,0,0,1-.47-.26v-5a1,1,0,0,1,.47-.85l24.81-15.25A.37.37,0,0,1,160.45,138.11Z"/><path class="cls-7" d="M160.45,153.12v5.1a.68.68,0,0,1-.33.58l-25,15.4a.31.31,0,0,1-.47-.27v-5a1,1,0,0,1,.47-.85l24.81-15.26A.37.37,0,0,1,160.45,153.12Z"/><path class="cls-7" d="M125.07,176.4v5.1a.7.7,0,0,1-.32.58L92.33,202a.31.31,0,0,1-.47-.27v-5a1,1,0,0,1,.47-.85l32.19-19.78A.36.36,0,0,1,125.07,176.4Z"/><path class="cls-7" d="M102.33,208.53v7.39a1,1,0,0,1-.47.84L95,220.94a.45.45,0,0,1-.69-.39v-7.27a1.46,1.46,0,0,1,.68-1.23l6.55-4A.53.53,0,0,1,102.33,208.53Z"/><path class="cls-9" d="M113.7,201.58V209a1,1,0,0,1-.47.84L106.36,214a.45.45,0,0,1-.69-.39v-7.27a1.42,1.42,0,0,1,.69-1.22l6.54-4A.53.53,0,0,1,113.7,201.58Z"/><path class="cls-10" d="M125.07,194.63V202a1,1,0,0,1-.47.84L117.73,207a.45.45,0,0,1-.69-.39v-7.26a1.43,1.43,0,0,1,.69-1.23l6.54-4A.53.53,0,0,1,125.07,194.63Z"/><path class="cls-7" d="M154.76,63.74v1.93a.69.69,0,0,1-.33.59l-21.7,13.35a.32.32,0,0,1-.48-.27V77.48a1,1,0,0,1,.48-.84l21.48-13.21A.36.36,0,0,1,154.76,63.74Z"/><path class="cls-7" d="M146.79,74.26v1.93a.69.69,0,0,1-.33.59l-13.73,8.49a.31.31,0,0,1-.48-.26V83.15a1,1,0,0,1,.48-.85L146.24,74A.36.36,0,0,1,146.79,74.26Z"/><path class="cls-7" d="M165.47,68.49v1.94a.71.71,0,0,1-.33.59L132.73,90.94a.32.32,0,0,1-.48-.27V88.81a1,1,0,0,1,.48-.84l32.18-19.79A.37.37,0,0,1,165.47,68.49Z"/><path class="cls-7" d="M162.58,75.88v1.94a.68.68,0,0,1-.33.58L132.73,96.6a.31.31,0,0,1-.48-.26V94.48a1,1,0,0,1,.48-.85L162,75.57A.37.37,0,0,1,162.58,75.88Z"/><path class="cls-7" d="M149.7,89.5v1.94a.68.68,0,0,1-.33.58l-16.64,10.25a.31.31,0,0,1-.48-.27v-1.85a1,1,0,0,1,.48-.85l16.41-10.11A.37.37,0,0,1,149.7,89.5Z"/><path class="cls-7" d="M165.47,85.49v1.94a.68.68,0,0,1-.33.58l-32.41,19.92a.31.31,0,0,1-.48-.26v-1.86a1,1,0,0,1,.48-.85l32.18-19.78A.37.37,0,0,1,165.47,85.49Z"/><path class="cls-7" d="M165.47,91.16v1.93a.71.71,0,0,1-.33.59L132.73,113.6a.31.31,0,0,1-.48-.27v-1.85a1,1,0,0,1,.48-.85l32.18-19.78A.36.36,0,0,1,165.47,91.16Z"/><path class="cls-7" d="M157.69,101.63v1.94a.66.66,0,0,1-.33.58l-24.63,15.11a.31.31,0,0,1-.48-.26v-1.86a1,1,0,0,1,.48-.85l24.41-15A.36.36,0,0,1,157.69,101.63Z"/><path class="cls-7" d="M165.47,102.49v1.93a.71.71,0,0,1-.33.59l-32.41,19.92a.31.31,0,0,1-.48-.27v-1.85a1,1,0,0,1,.48-.85l32.18-19.78A.36.36,0,0,1,165.47,102.49Z"/><path class="cls-7" d="M165.47,108.15v1.94a.68.68,0,0,1-.33.58l-32.41,19.92a.31.31,0,0,1-.48-.26v-1.86a1,1,0,0,1,.48-.85l32.18-19.78A.37.37,0,0,1,165.47,108.15Z"/><path class="cls-11" d="M113.92,104.86c0,3-2.44,9.18-5.45,11.06S103,114.7,103,111.68s2.44-7,5.46-8.87S113.92,101.85,113.92,104.86Z"/><path class="cls-11" d="M121.68,121.75v.89L95.25,139.15v-.89c0-7.29,5.92-16.9,13.22-21.46,3.65-2.29,7-2.87,9.34-2S121.68,118.11,121.68,121.75Z"/><path class="cls-11" d="M152.15,54l-39.8,23.91v-1c0-3,2.46-7,5.5-8.79l28.81-17.31c3-1.82,5.49-.84,5.49,2.19Z"/><path class="cls-12" d="M138.17,54.14l-1.09.65c-1.61,1-2.78.13-2.34-1.69h0c.21-.91.1-1.74-1.19-2a2,2,0,0,0-1.37.35,5.47,5.47,0,0,0-2.47,4.05,2.29,2.29,0,0,0,.07.55h0c.45,1.3-.72,3.55-2.34,4.52l-1.09.66a4.81,4.81,0,0,0-2.26,3.61v.42l16.36-9.83V55C140.43,53.79,139.42,53.39,138.17,54.14Zm-5.92,1.18c-.74.44-1.33.2-1.33-.53a2.82,2.82,0,0,1,1.33-2.13c.74-.45,1.34-.21,1.34.53A2.86,2.86,0,0,1,132.25,55.32Z"/><path class="cls-7" d="M165.47,79.75v1.94a.71.71,0,0,1-.33.58l-13.31,8.27a.31.31,0,0,1-.48-.27V88.42a1,1,0,0,1,.48-.85l13.08-8.13A.36.36,0,0,1,165.47,79.75Z"/><g class="cls-13"><path class="cls-2" d="M227.54,25.31l-.75.45c-1.12.68-1.93.09-1.62-1.17h0c.14-.63.07-1.2-.82-1.36a1.39,1.39,0,0,0-1,.24,3.79,3.79,0,0,0-1.71,2.8,1.4,1.4,0,0,0,0,.38h0c.3.89-.5,2.45-1.62,3.12l-.76.45a3.35,3.35,0,0,0-1.56,2.5V33l11.32-6.8v-.3C229.11,25.07,228.41,24.79,227.54,25.31Zm-4.09.82c-.51.3-.93.14-.93-.37a2,2,0,0,1,.93-1.47c.51-.31.92-.15.92.36A2,2,0,0,1,223.45,26.13Z"/><path class="cls-3" d="M237.21,25.22,209.69,41.76v-.71A8.12,8.12,0,0,1,213.48,35l19.93-12c2.1-1.27,3.8-.59,3.8,1.51Z"/><path class="cls-4" d="M255.9,15.23l-1.7-.69h0a1.46,1.46,0,0,0-1.31.1L191,52.68a4.16,4.16,0,0,0-2,3.53V157.05a1.7,1.7,0,0,0,.88,1.5h0a1.8,1.8,0,0,0,.38.16l1.3.53.51-1,61.42-37.75a3.38,3.38,0,0,0,1.62-2.89V15.92a1.46,1.46,0,0,0-.1-.52l.65.19Z"/><path class="cls-5" d="M256.75,16.57V118.26a3.41,3.41,0,0,1-1.62,2.89l-61.87,38a1.72,1.72,0,0,1-2.62-1.47V56.86a4.11,4.11,0,0,1,2-3.52l61.88-38A1.48,1.48,0,0,1,256.75,16.57Z"/><path class="cls-6" d="M254.49,19.13v98.56a1.28,1.28,0,0,1-.61,1.09l-60.1,36.94a.58.58,0,0,1-.88-.5V56.81a1.83,1.83,0,0,1,.88-1.57l59.68-36.68A.67.67,0,0,1,254.49,19.13Z"/><path class="cls-7" d="M220.37,45.15V81.91a.46.46,0,0,1-.23.4L197.72,96.09a.21.21,0,0,1-.33-.18V59.2a.68.68,0,0,1,.33-.58L220,44.93A.26.26,0,0,1,220.37,45.15Z"/><path class="cls-7" d="M220.37,88.85v3.52a.49.49,0,0,1-.23.41l-22.42,13.77a.21.21,0,0,1-.33-.18V102.9a.68.68,0,0,1,.33-.58L220,88.63A.26.26,0,0,1,220.37,88.85Z"/><path class="cls-8" d="M218,77.25v2.8a.37.37,0,0,1-.18.32L200,91.34a.17.17,0,0,1-.26-.15V88.43A.56.56,0,0,1,200,88l17.71-10.88A.2.2,0,0,1,218,77.25Z"/><path class="cls-7" d="M220.37,96.16v3.52a.49.49,0,0,1-.23.41l-22.42,13.77a.21.21,0,0,1-.33-.18v-3.47a.68.68,0,0,1,.33-.58L220,95.94A.26.26,0,0,1,220.37,96.16Z"/><path class="cls-7" d="M215.27,106.6v3.52a.49.49,0,0,1-.23.41l-17.32,10.64a.21.21,0,0,1-.33-.18v-3.47a.68.68,0,0,1,.33-.58l17.16-10.55A.25.25,0,0,1,215.27,106.6Z"/><path class="cls-7" d="M244.83,84.29v3.53a.46.46,0,0,1-.22.4L227.29,98.87a.22.22,0,0,1-.33-.18V95.22a.69.69,0,0,1,.33-.59l17.16-10.55A.25.25,0,0,1,244.83,84.29Z"/><path class="cls-7" d="M244.83,94.68V98.2a.48.48,0,0,1-.22.41l-17.32,10.64a.21.21,0,0,1-.33-.18V105.6a.66.66,0,0,1,.33-.58l17.16-10.56A.25.25,0,0,1,244.83,94.68Z"/><path class="cls-7" d="M220.37,110.78v3.52a.49.49,0,0,1-.23.41l-22.42,13.77a.21.21,0,0,1-.33-.18v-3.47a.68.68,0,0,1,.33-.58L220,110.56A.26.26,0,0,1,220.37,110.78Z"/><path class="cls-7" d="M204.64,133v5.11a.71.71,0,0,1-.33.59l-4.75,2.88a.31.31,0,0,1-.48-.26v-5a1,1,0,0,1,.47-.85l4.53-2.75A.37.37,0,0,1,204.64,133Z"/><path class="cls-9" d="M212.5,128.2v5.1a.69.69,0,0,1-.33.59l-4.75,2.89a.32.32,0,0,1-.48-.27v-5a1,1,0,0,1,.48-.85l4.53-2.74A.36.36,0,0,1,212.5,128.2Z"/><path class="cls-10" d="M220.37,123.39v5.11a.68.68,0,0,1-.33.58L215.29,132a.31.31,0,0,1-.48-.27v-5a1,1,0,0,1,.47-.85l4.53-2.75A.37.37,0,0,1,220.37,123.39Z"/><path class="cls-7" d="M240.9,32.85v1.34a.49.49,0,0,1-.23.41l-15,9.23a.21.21,0,0,1-.33-.18V42.36a.68.68,0,0,1,.33-.58l14.86-9.14A.25.25,0,0,1,240.9,32.85Z"/><path class="cls-7" d="M235.39,40.13v1.34a.47.47,0,0,1-.23.4l-9.5,5.88a.22.22,0,0,1-.33-.18V46.28a.71.71,0,0,1,.33-.59L235,39.92A.25.25,0,0,1,235.39,40.13Z"/><path class="cls-7" d="M248.3,36.14v1.35a.47.47,0,0,1-.22.4L225.66,51.67a.22.22,0,0,1-.33-.19V50.2a.71.71,0,0,1,.33-.59l22.26-13.68A.25.25,0,0,1,248.3,36.14Z"/><path class="cls-7" d="M246.31,41.26V42.6a.48.48,0,0,1-.23.4L225.66,55.59a.22.22,0,0,1-.33-.19V54.12a.71.71,0,0,1,.33-.59L245.92,41A.26.26,0,0,1,246.31,41.26Z"/><path class="cls-7" d="M237.4,50.67V52a.48.48,0,0,1-.23.4L225.66,59.5a.21.21,0,0,1-.33-.18V58a.7.7,0,0,1,.33-.59l11.35-7A.26.26,0,0,1,237.4,50.67Z"/><path class="cls-7" d="M248.3,47.9v1.34a.45.45,0,0,1-.22.4L225.66,63.42a.21.21,0,0,1-.33-.18V62a.69.69,0,0,1,.33-.58l22.26-13.68A.24.24,0,0,1,248.3,47.9Z"/><path class="cls-7" d="M248.3,51.82v1.34a.46.46,0,0,1-.22.4L225.66,67.34a.21.21,0,0,1-.33-.18V65.87a.68.68,0,0,1,.33-.58L247.92,51.6A.25.25,0,0,1,248.3,51.82Z"/><path class="cls-7" d="M242.93,59.06V60.4a.49.49,0,0,1-.23.41l-17,10.45a.22.22,0,0,1-.33-.18V69.79a.68.68,0,0,1,.33-.58l16.88-10.36A.26.26,0,0,1,242.93,59.06Z"/><path class="cls-7" d="M248.3,59.66V61a.47.47,0,0,1-.22.4L225.66,75.18a.22.22,0,0,1-.33-.19V73.71a.71.71,0,0,1,.33-.59l22.26-13.68A.25.25,0,0,1,248.3,59.66Z"/><path class="cls-7" d="M248.3,63.57v1.34a.48.48,0,0,1-.22.41L225.66,79.1a.22.22,0,0,1-.33-.19V77.63a.71.71,0,0,1,.33-.59l22.26-13.68A.25.25,0,0,1,248.3,63.57Z"/><path class="cls-11" d="M212.65,61.3c0,2.08-1.69,6.35-3.77,7.65S205.1,68.1,205.1,66a8.3,8.3,0,0,1,3.78-6.14C211,58.58,212.65,59.21,212.65,61.3Z"/><path class="cls-11" d="M218,73v.61L199.74,85V84.4c0-5.05,4.09-11.69,9.14-14.85,2.52-1.57,4.81-2,6.46-1.36S218,70.46,218,73Z"/><path class="cls-11" d="M239.09,26.12,211.57,42.66V42a8.12,8.12,0,0,1,3.8-6.08l19.93-12c2.09-1.26,3.79-.58,3.79,1.52Z"/><path class="cls-12" d="M229.43,26.22l-.76.45c-1.12.67-1.92.09-1.62-1.17h0c.14-.63.06-1.21-.83-1.37a1.38,1.38,0,0,0-.94.25,3.76,3.76,0,0,0-1.72,2.8,1.51,1.51,0,0,0,.06.38h0c.31.89-.5,2.45-1.62,3.12l-.76.46a3.35,3.35,0,0,0-1.56,2.5v.29L231,27.13v-.29C231,26,230.29,25.7,229.43,26.22Zm-4.1.81c-.51.31-.92.14-.92-.36a2,2,0,0,1,.92-1.48c.51-.31.92-.14.92.37A2,2,0,0,1,225.33,27Z"/><path class="cls-7" d="M248.3,43.93v1.34a.46.46,0,0,1-.22.4l-9.21,5.72a.21.21,0,0,1-.33-.18V49.92a.68.68,0,0,1,.33-.58l9-5.63A.25.25,0,0,1,248.3,43.93Z"/></g><g class="cls-14"><path class="cls-2" d="M38.51,141.08l-.75.45c-1.12.68-1.93.09-1.62-1.17h0c.14-.63.07-1.2-.82-1.36a1.39,1.39,0,0,0-1,.24,3.78,3.78,0,0,0-1.71,2.8,1.46,1.46,0,0,0,.05.38h0c.3.89-.5,2.45-1.63,3.12l-.75.45a3.35,3.35,0,0,0-1.56,2.5v.29L40.07,142v-.3C40.07,140.84,39.38,140.56,38.51,141.08Zm-4.09.81c-.51.31-.93.15-.93-.36a2,2,0,0,1,.93-1.48c.51-.3.92-.14.92.37A1.94,1.94,0,0,1,34.42,141.89Z"/><path class="cls-3" d="M48.18,141,20.65,157.52v-.7a8.1,8.1,0,0,1,3.8-6.08l19.93-12c2.1-1.26,3.8-.58,3.8,1.52Z"/><path class="cls-4" d="M66.87,131l-1.7-.69h0a1.43,1.43,0,0,0-1.31.1L2,168.45A4.16,4.16,0,0,0,0,172V272.82a1.7,1.7,0,0,0,.88,1.5h0a1.8,1.8,0,0,0,.38.16l1.3.53.51-1,61.42-37.75a3.37,3.37,0,0,0,1.62-2.88V131.69a1.46,1.46,0,0,0-.1-.52l.65.19Z"/><path class="cls-5" d="M67.72,132.34V234a3.41,3.41,0,0,1-1.62,2.89l-61.87,38a1.72,1.72,0,0,1-2.62-1.47V172.63a4.11,4.11,0,0,1,2-3.52l61.88-38A1.48,1.48,0,0,1,67.72,132.34Z"/><path class="cls-6" d="M65.46,134.9v98.56a1.26,1.26,0,0,1-.61,1.08l-60.1,37a.58.58,0,0,1-.88-.5V172.58A1.83,1.83,0,0,1,4.75,171l59.68-36.69A.68.68,0,0,1,65.46,134.9Z"/><path class="cls-7" d="M31.34,160.92v36.76a.47.47,0,0,1-.23.4L8.69,211.86a.21.21,0,0,1-.33-.18V175a.71.71,0,0,1,.33-.59L31,160.7A.26.26,0,0,1,31.34,160.92Z"/><path class="cls-7" d="M31.34,204.62v3.52a.46.46,0,0,1-.23.4L8.69,222.32a.21.21,0,0,1-.33-.18v-3.47a.68.68,0,0,1,.33-.58L31,204.4A.26.26,0,0,1,31.34,204.62Z"/><path class="cls-8" d="M29,193v2.8a.38.38,0,0,1-.18.32L11,207.1a.17.17,0,0,1-.26-.14V204.2a.56.56,0,0,1,.26-.47l17.71-10.88A.2.2,0,0,1,29,193Z"/><path class="cls-7" d="M31.34,211.93v3.52a.46.46,0,0,1-.23.4L8.69,229.63a.21.21,0,0,1-.33-.18V226a.68.68,0,0,1,.33-.58L31,211.71A.26.26,0,0,1,31.34,211.93Z"/><path class="cls-7" d="M26.24,222.37v3.52a.49.49,0,0,1-.23.41L8.69,236.94a.21.21,0,0,1-.33-.18v-3.47a.68.68,0,0,1,.33-.58l17.16-10.56A.26.26,0,0,1,26.24,222.37Z"/><path class="cls-7" d="M55.8,200.06v3.53a.47.47,0,0,1-.22.4L38.26,214.64a.22.22,0,0,1-.33-.19V211a.69.69,0,0,1,.33-.59l17.16-10.55A.25.25,0,0,1,55.8,200.06Z"/><path class="cls-7" d="M55.8,210.45V214a.45.45,0,0,1-.22.4L38.26,225a.21.21,0,0,1-.33-.18v-3.47a.69.69,0,0,1,.33-.59l17.16-10.55A.25.25,0,0,1,55.8,210.45Z"/><path class="cls-7" d="M31.34,226.55v3.52a.49.49,0,0,1-.23.41L8.69,244.25a.21.21,0,0,1-.33-.18V240.6a.68.68,0,0,1,.33-.58L31,226.33A.26.26,0,0,1,31.34,226.55Z"/><path class="cls-7" d="M15.61,248.77v5.11a.68.68,0,0,1-.33.58l-4.76,2.89a.31.31,0,0,1-.47-.26v-5a1,1,0,0,1,.47-.85l4.53-2.75A.37.37,0,0,1,15.61,248.77Z"/><path class="cls-9" d="M23.47,244v5.11a.69.69,0,0,1-.33.59l-4.75,2.89a.32.32,0,0,1-.48-.27v-5a1,1,0,0,1,.48-.85l4.52-2.75A.37.37,0,0,1,23.47,244Z"/><path class="cls-10" d="M31.34,239.16v5.11a.68.68,0,0,1-.33.58l-4.76,2.89a.31.31,0,0,1-.47-.27v-5a1,1,0,0,1,.47-.85l4.53-2.75A.37.37,0,0,1,31.34,239.16Z"/><path class="cls-7" d="M51.87,148.62V150a.49.49,0,0,1-.23.41l-15,9.23a.22.22,0,0,1-.33-.18v-1.29a.69.69,0,0,1,.33-.59l14.86-9.13A.25.25,0,0,1,51.87,148.62Z"/><path class="cls-7" d="M46.36,155.9v1.34a.47.47,0,0,1-.23.4l-9.5,5.88a.22.22,0,0,1-.33-.19v-1.28a.69.69,0,0,1,.33-.59L46,155.68A.26.26,0,0,1,46.36,155.9Z"/><path class="cls-7" d="M59.27,151.91v1.34a.48.48,0,0,1-.22.41L36.63,167.44a.22.22,0,0,1-.33-.19V166a.69.69,0,0,1,.33-.59L58.89,151.7A.25.25,0,0,1,59.27,151.91Z"/><path class="cls-7" d="M57.28,157v1.34a.49.49,0,0,1-.23.41L36.63,171.35a.21.21,0,0,1-.33-.18v-1.28a.69.69,0,0,1,.33-.59l20.26-12.49A.26.26,0,0,1,57.28,157Z"/><path class="cls-7" d="M48.37,166.44v1.34a.49.49,0,0,1-.23.41l-11.51,7.08a.21.21,0,0,1-.33-.18v-1.28a.68.68,0,0,1,.33-.59l11.35-7A.26.26,0,0,1,48.37,166.44Z"/><path class="cls-7" d="M59.27,163.67V165a.46.46,0,0,1-.22.4L36.63,179.19a.21.21,0,0,1-.33-.18v-1.29a.66.66,0,0,1,.33-.58l22.26-13.69A.25.25,0,0,1,59.27,163.67Z"/><path class="cls-7" d="M59.27,167.59v1.34a.46.46,0,0,1-.22.4L36.63,183.11a.22.22,0,0,1-.33-.18v-1.29a.66.66,0,0,1,.33-.58l22.26-13.69A.25.25,0,0,1,59.27,167.59Z"/><path class="cls-7" d="M53.89,174.83v1.34a.48.48,0,0,1-.22.41L36.63,187a.22.22,0,0,1-.33-.19v-1.28a.69.69,0,0,1,.33-.59l16.88-10.35A.25.25,0,0,1,53.89,174.83Z"/><path class="cls-7" d="M59.27,175.42v1.34a.48.48,0,0,1-.22.41L36.63,191a.22.22,0,0,1-.33-.19v-1.28a.69.69,0,0,1,.33-.59l22.26-13.68A.25.25,0,0,1,59.27,175.42Z"/><path class="cls-7" d="M59.27,179.34v1.34a.48.48,0,0,1-.22.41L36.63,194.87a.22.22,0,0,1-.33-.19V193.4a.69.69,0,0,1,.33-.59l22.26-13.68A.25.25,0,0,1,59.27,179.34Z"/><path class="cls-11" d="M23.62,177.07c0,2.08-1.69,6.35-3.77,7.65s-3.78-.85-3.78-2.94a8.3,8.3,0,0,1,3.78-6.13C21.93,174.35,23.62,175,23.62,177.07Z"/><path class="cls-11" d="M29,188.75v.61L10.71,200.78v-.61c0-5,4.09-11.69,9.14-14.85,2.52-1.58,4.81-2,6.46-1.36S29,186.23,29,188.75Z"/><path class="cls-11" d="M50.06,141.89,22.54,158.43v-.71a8.12,8.12,0,0,1,3.8-6.08l19.93-12c2.09-1.26,3.79-.58,3.79,1.51Z"/><path class="cls-12" d="M40.4,142l-.76.46c-1.12.67-1.93.09-1.62-1.17h0c.14-.64.06-1.21-.83-1.37a1.38,1.38,0,0,0-.94.25,3.76,3.76,0,0,0-1.72,2.8,1.52,1.52,0,0,0,0,.38h0c.31.89-.5,2.45-1.62,3.12l-.76.46a3.33,3.33,0,0,0-1.56,2.5v.29L42,142.9v-.29C42,141.75,41.26,141.47,40.4,142Zm-4.1.82c-.51.31-.92.14-.92-.37A2,2,0,0,1,36.3,141c.51-.31.92-.14.92.37A2,2,0,0,1,36.3,142.8Z"/><path class="cls-7" d="M59.27,159.7V161a.46.46,0,0,1-.22.4l-9.21,5.72a.22.22,0,0,1-.33-.18v-1.29a.68.68,0,0,1,.33-.58l9-5.63A.25.25,0,0,1,59.27,159.7Z"/></g><path class="cls-15" d="M193.26,261.18l-36.59,22.06a4.23,4.23,0,0,1-4.37,0l-36.77-22.47a1.4,1.4,0,0,1,0-2.4l37.36-22.52a3.62,3.62,0,0,1,3.77,0l36.61,22.36A1.74,1.74,0,0,1,193.26,261.18Z"/><path class="cls-16" d="M194.08,249.78a1.69,1.69,0,0,0-.81-1.37L156.66,226a3.65,3.65,0,0,0-3.77,0l-37.36,22.52a1.39,1.39,0,0,0-.67,1.23h0v6.12h0a1.37,1.37,0,0,0,.65.94l36.77,22.47a4.21,4.21,0,0,0,4.37,0l36.59-22.06a1.7,1.7,0,0,0,.82-1.6h0v-5.88Z"/><path class="cls-11" d="M193.26,251.38l-36.59,22.06a4.21,4.21,0,0,1-4.37,0L115.53,251a1.41,1.41,0,0,1,0-2.41L152.89,226a3.65,3.65,0,0,1,3.77,0l36.61,22.37A1.74,1.74,0,0,1,193.26,251.38Z"/><path class="cls-15" d="M287.11,323.48l-36.59,22.06a4.21,4.21,0,0,1-4.37,0l-36.77-22.47a1.4,1.4,0,0,1,0-2.4l37.35-22.52a3.62,3.62,0,0,1,3.77,0l36.61,22.37A1.73,1.73,0,0,1,287.11,323.48Z"/><path class="cls-16" d="M287.94,311.42a1.7,1.7,0,0,0-.82-1.36l-36.61-22.37a3.62,3.62,0,0,0-3.77,0L209.39,310.2a1.39,1.39,0,0,0-.68,1.22h0v6.12h0a1.33,1.33,0,0,0,.64.95L246.15,341a4.19,4.19,0,0,0,4.37,0l36.59-22.06a1.7,1.7,0,0,0,.83-1.6h0v-5.89Z"/><path class="cls-11" d="M287.11,313l-36.59,22.06a4.21,4.21,0,0,1-4.37,0l-36.77-22.46a1.41,1.41,0,0,1,0-2.41l37.35-22.52a3.62,3.62,0,0,1,3.77,0l36.61,22.37A1.73,1.73,0,0,1,287.11,313Z"/><path class="cls-17" d="M265.54,312.92V313a.45.45,0,0,1,0,.08.35.35,0,0,0,0,.11c-.13.48-.68,1.7-2.76,2.07l-.39.05-.15,0a13,13,0,0,1-1.56,0l-.51-.05a12.06,12.06,0,0,1-4.91-2.68l-.15-.13v-.43s-1.49-1-2-1.32c-1.67-1-4.06-1.83-6.35-3a6.69,6.69,0,0,1-1.6-1.08l-.22-.22a.83.83,0,0,1-.14-.13,2.26,2.26,0,0,0-.13-.2c-.1-.13-.18-.25-.25-.36a1.8,1.8,0,0,1-.1-.18l-.09-.17a1.06,1.06,0,0,1-.06-.19h0a3.14,3.14,0,0,1-.13-.86v-1.5l13.92,5.71,7.61,2.84Z"/><path class="cls-18" d="M257.25,302.54a56,56,0,0,1-6.13-.76c-3.8-.65-6.42-.84-6.91.35s-.59,2.38,2.81,4.7,6,2.57,8.74,4.76a9.49,9.49,0,0,0,5.85,2.14c2,.14,3.39-.63,3.83-1.46,1-1.92,0-5.55,0-5.55"/><path class="cls-17" d="M251.84,315.14l0,1.88a1.77,1.77,0,0,1-1,1.63,2.36,2.36,0,0,1-.83.23,28.58,28.58,0,0,1-6-.29v-.69l-5.09-.62a22.58,22.58,0,0,1-7.88-2.35,1.7,1.7,0,0,1-.91-1.51V312l14.95,2.64Z"/><path class="cls-18" d="M241.35,308.51a6.06,6.06,0,0,1-3.62,1.57c-2,0-5.78-.05-6.76.63a1.61,1.61,0,0,0-.76,1.23,2.48,2.48,0,0,0,.52,1.52c.73,1.07,5.68,2.69,9.4,3s3.91.25,5.68.54,3.59.43,4.7-.12c1.92-.95,2.05-3.84.88-5.75S241.35,308.51,241.35,308.51Z"/><path class="cls-5" d="M250,180.75l-26.11,15.72-9.1-22.09a1.82,1.82,0,0,1,.75-2.25l23.36-14.07a1.42,1.42,0,0,1,2,.68Z"/><path class="cls-6" d="M248.8,180.32,224.51,195l-8.39-20.39c-.38-1-.37-1.47.69-2.08L239.23,159a.62.62,0,0,1,.9.3Z"/><path class="cls-19" d="M225.75,176.08l-5.09,3.06a.27.27,0,0,1-.38-.12l-1.86-4.51a.27.27,0,0,1,.11-.32l5.09-3.07a.27.27,0,0,1,.38.13l1.85,4.5A.27.27,0,0,1,225.75,176.08Z"/><path class="cls-20" d="M233.22,171.58l-5.1,3.07a.26.26,0,0,1-.37-.13l-1.86-4.5a.27.27,0,0,1,.11-.33l5.09-3.06a.27.27,0,0,1,.38.12l1.85,4.51A.25.25,0,0,1,233.22,171.58Z"/><path class="cls-21" d="M236.59,182.51l-8.26,5a.42.42,0,0,1-.61-.2l-3-7.31a.43.43,0,0,1,.17-.53l8.27-5a.43.43,0,0,1,.61.2l3,7.32A.42.42,0,0,1,236.59,182.51Z"/><path class="cls-21" d="M238.13,174.05l-2.76,1.66a.14.14,0,0,1-.2-.07l-.06-.17a.14.14,0,0,1,.06-.18l2.75-1.66a.14.14,0,0,1,.2.07l.06.17A.14.14,0,0,1,238.13,174.05Z"/><path class="cls-21" d="M236,176.57a.24.24,0,0,1-.36-.12l-.11-.3a.25.25,0,0,1,.1-.31l4.89-2.94a.25.25,0,0,1,.36.12l.1.31a.24.24,0,0,1-.1.3"/><path class="cls-21" d="M241.19,174.52l-4.88,2.94a.26.26,0,0,1-.36-.12l-.1-.31a.25.25,0,0,1,.1-.31l4.88-2.94a.25.25,0,0,1,.36.12l.1.31A.25.25,0,0,1,241.19,174.52Z"/><path class="cls-21" d="M241.56,175.4l-4.89,2.94a.24.24,0,0,1-.35-.12l-.11-.31a.26.26,0,0,1,.1-.31l4.88-2.93a.24.24,0,0,1,.36.11l.11.31A.26.26,0,0,1,241.56,175.4Z"/><path class="cls-20" d="M241.92,176.28,237,179.22a.25.25,0,0,1-.36-.12l-.11-.31a.24.24,0,0,1,.11-.3l4.88-2.94a.24.24,0,0,1,.36.12l.1.3A.24.24,0,0,1,241.92,176.28Z"/><path class="cls-19" d="M242.29,177.16l-4.89,2.94A.25.25,0,0,1,237,180l-.1-.3a.25.25,0,0,1,.1-.31l4.88-2.94a.25.25,0,0,1,.36.12l.11.3A.25.25,0,0,1,242.29,177.16Z"/><path class="cls-21" d="M240.68,167.09l-5.09,3.06a.25.25,0,0,1-.37-.12l-1.86-4.51a.26.26,0,0,1,.11-.32l5.09-3.07a.26.26,0,0,1,.37.13l1.86,4.51A.26.26,0,0,1,240.68,167.09Z"/><path class="cls-22" d="M249.62,173.07a8.54,8.54,0,0,1-1.9,1.41l-.33-.43a1.29,1.29,0,0,0-.84-.48,4,4,0,0,1-2.33-1,12.09,12.09,0,0,1-1.34-2.15,0,0,0,0,1,0,0,.9.9,0,0,0-.07-.14c-.14-.31-.41-.93-.42-1a.21.21,0,0,1,.08-.19h0c.23-.13.57-.27.77-.14a5.78,5.78,0,0,1,1,1.12,2.94,2.94,0,0,0,1.21.88,1.07,1.07,0,0,1,.15.07s.3-.17.07-.71l-1.65-4c1.68.06,3.1,2.21,3.8,4A18.81,18.81,0,0,1,249.62,173.07Z"/><path class="cls-23" d="M226.17,193.11l-2.55,2.12-.48.4a8.25,8.25,0,0,0-1.61-3.36,6.38,6.38,0,0,0-2-.89,1.61,1.61,0,0,1-.85-.57,6.29,6.29,0,0,1-.84-4.76,2.94,2.94,0,0,1,.33-1.07v0c.31-.54.7-.52.7-.52s1.72,1.22,2.22,1.59.93.89,1.33.45c.22-.23-1-1.81-1.38-2.54s.32-1.5.61-1.23a17.75,17.75,0,0,1,2.77,4.38C225.17,189,226.17,193.11,226.17,193.11Z"/><path class="cls-24" d="M224.2,193.42l-.58,1.81-.48.4a8.25,8.25,0,0,0-1.61-3.36,6.38,6.38,0,0,0-2-.89,1.61,1.61,0,0,1-.85-.57,6.29,6.29,0,0,1-.84-4.76,2.94,2.94,0,0,1,.33-1.07v0s0,.45.72,1.07a17.28,17.28,0,0,0,2.24,1.51,6.82,6.82,0,0,1,1.73,2.6C223.38,191.29,224.2,193.42,224.2,193.42Z"/><path class="cls-23" d="M261.66,170l.3.7-.46,2.34-7.44,3.74-.44-.06-1.19-.14-1.87-.25v-2.58a3.38,3.38,0,0,0-1.93-3.13l-.09,0a3.55,3.55,0,0,1-1.26-.85l-.11-.11c-1.44-1.52-2.71-4.94-2.35-12.41a14.44,14.44,0,0,1,1-4.72c1.08-2.08,3.38-3.45,8.12-2.15,7.91,2.19,11.36,5.77,11.76,8.87S261.66,170,261.66,170Z"/><path class="cls-11" d="M247.66,175.11l-.37-.91a13.56,13.56,0,0,0,2.15-1.6,7.68,7.68,0,0,1,.54.8A4.73,4.73,0,0,1,247.66,175.11Z"/><path class="cls-25" d="M247.62,175a17.73,17.73,0,0,0,2.45-1.91s.64,1.06,1.17,2a7,7,0,0,1,.44,2.93l-2.47.84Z"/><path class="cls-26" d="M250.56,176.35v-2.58a3.38,3.38,0,0,0-1.93-3.13c.39.17,1.59.74,3.18,1.6.64.34.62,2.4.62,4.36Z"/><path class="cls-27" d="M222.67,195.57l-.45-1.42a1.11,1.11,0,0,1,.06-.82,6.54,6.54,0,0,1,1.16-1.79,1.76,1.76,0,0,1,2.13-.35,3.11,3.11,0,0,1,.55,1.08,3.51,3.51,0,0,1,.11,1.26c0,.1-.94,1.4-1,1.51A25.21,25.21,0,0,1,222.67,195.57Z"/><path class="cls-28" d="M269.28,240.73c-1.76,9.63-3,21.57-3,21.57s2.94,23.92-.37,44.74c-.14,1-.48,3.07-1.75,3.88a4.71,4.71,0,0,1-4.08,0l-.19-.1c-4.93-2.7-4.41-6.2-5.13-8.5,0-9.26,1-32.06-1-37.07L252,245l.64-14.44h17.68v0l.08,0S271.91,234.46,269.28,240.73Z"/><path class="cls-29" d="M263.89,241.12c-1.67,5.47-3.81,19.76-4.26,23.25,0,0,1.64,27.51.24,46.43-4.93-2.7-4.41-6.2-5.13-8.5,0-9.26,1-32.06-1-37.07L252,245l.64-14.44H264.8A26.87,26.87,0,0,1,263.89,241.12Z"/><path class="cls-28" d="M262.76,235.35a28.52,28.52,0,0,1-3.82,9.24c-.34.51-.65,1-.94,1.55-.06.25-.92,3.48-2,7.82s-2.37,9.79-3.3,14.42c.51,5.81,1.95,26.17-.79,43.79a3.21,3.21,0,0,1-2.32,2.63,5.73,5.73,0,0,1-1.95.21,5,5,0,0,1-1.62-.39c-2.9-1.22-5-5.85-5-5.85s-.07-29.28-1.59-37a35.17,35.17,0,0,1-.54-4.44c-.28-4.7-.79-13.29-.95-16.88a149.45,149.45,0,0,1-.11-15.45l14.49.18Z"/><path class="cls-29" d="M252.34,235.22c-.08.87-.13,1.44-.13,1.44a36,36,0,0,1-2,9.12c-1.85,5.47-3.68,18.44-3.87,23.31-.2,4.47,2.18,25.8,1.29,45.92a5,5,0,0,1-1.62-.39c-2.9-1.22-5-5.85-5-5.85s-.07-29.28-1.59-37a35.17,35.17,0,0,1-.54-4.44c-.28-4.7-.79-13.29-.95-16.88a149.45,149.45,0,0,1-.11-15.45Z"/><path class="cls-30" d="M272.12,194.5c-2.34,7.09-3.65,18.74-2.24,23.6a89,89,0,0,1,2.24,11.76c-1.33,3.65-13.68,11.55-20.57,12.16a10.22,10.22,0,0,1-2.53-.1c-6.07-.9-11.76-6.28-11.76-6.28s1.31-20,2.13-32.73A73.21,73.21,0,0,1,242,186.54c.39-1.3.65-1.92.65-1.92a28.76,28.76,0,0,1,5.68-4.41l.06,0c1.86-1.24,4-2.55,6.11-3.8h0c2.83-1.68,5.69-3.25,8-4.39.27-.14.53-.26.77-.37a18.14,18.14,0,0,1,3.51-1.43c3.25-.61,7.6,1.1,8.92,7S274.44,187.4,272.12,194.5Z"/><path class="cls-25" d="M248.29,218c-.42,5.45.41,19,.73,23.9-6.07-.9-11.76-6.28-11.76-6.28s1.31-20,2.13-32.73A73.21,73.21,0,0,1,242,186.54l1.08-1.23h8s4.16.85,2.65,10.33S248.79,211.33,248.29,218Z"/><path class="cls-25" d="M263.28,174.61c-1.22,1.67-5.58,4.08-7.58,4.5a17.79,17.79,0,0,1-4.58.2,5.81,5.81,0,0,0-2.75.87l-.06,0h0l1.19-1.81,1.38-.89s2-.74,2.48-1a5.52,5.52,0,0,1,1.14-.19h0c1.2-.15,2.93-.27,3.2-.31a40.22,40.22,0,0,0,3.64-2.28c.08,0,.7-1.07,1.13-1.8.27-.14.53-.26.77-.37A2.32,2.32,0,0,1,263.28,174.61Z"/><path class="cls-31" d="M267.74,159.51c-.68,4.06-4.12,10.45-5.86,11a10.13,10.13,0,0,1-2.87.55,2.74,2.74,0,0,1-2.82-2.24,13.09,13.09,0,0,0-1.18-3.67c-1.22-2.25-2.81-3.43-3.61-3s-.72,1.86-.72,1.86l-.52,0s0-.46-.12-1.08-.12-1.38-.16-2a6.88,6.88,0,0,0-1.4-4.21,16.31,16.31,0,0,1-1.94-3.58,6.5,6.5,0,0,1-.49-3.21v0c.33-3.12,1.6-4.4,2.81-5.28,3.93-2.88,12.16,2.46,15.2,5a10.41,10.41,0,0,1,3.4,4.84h0A10.42,10.42,0,0,1,267.74,159.51Z"/><path class="cls-11" d="M262.71,171.43l-.75-.7a17.48,17.48,0,0,1-11.4,5.62,9.78,9.78,0,0,0-2.28,3.87l1-.67a4.61,4.61,0,0,1,1.79-.69c.41-.07,1.31-.11,1.31-.11,4.06-.06,8.1-2.89,10.21-4.64A1.78,1.78,0,0,0,262.71,171.43Z"/><path class="cls-32" d="M244.34,306.18a1.85,1.85,0,0,0,.25.37A3,3,0,0,1,244.34,306.18Z"/><path class="cls-32" d="M244.72,306.74c-.05-.06-.08-.13-.13-.19a3.54,3.54,0,0,0,.27.32A.83.83,0,0,1,244.72,306.74Z"/><path class="cls-28" d="M251.93,191.94c-.76,4.47-9.3,17.5-9.65,18a62.94,62.94,0,0,1-4.27,6.09h0a7.92,7.92,0,0,1-2.65,2.49,3.37,3.37,0,0,1-.34.09,4.59,4.59,0,0,1-5.39-3,94.87,94.87,0,0,1-4.45-9.72,91.1,91.1,0,0,1-2.54-9.9,3,3,0,0,1,.31-2.19l.09-.16c.48-.79,1.13-1.67,1.72-1.77,1.07-.16,1.27.12,1.27.12s2,3.15,3.52,5.58a46.78,46.78,0,0,1,3.1,6.57c.14.41.24.65.24.65,2.82-6.55,6.51-14.6,8-18a6.08,6.08,0,0,1,10.18-1.52,1.58,1.58,0,0,0,.12.15,2.56,2.56,0,0,1,.4.81h0l0,0C251.76,186.47,252.65,187.76,251.93,191.94Z"/><path class="cls-18" d="M267.74,159.51c-.68,4.06-4.12,10.45-5.86,11a10.13,10.13,0,0,1-2.87.55,2.74,2.74,0,0,1-2.82-2.24,13.09,13.09,0,0,0-1.18-3.67c-1.22-2.25-2.81-3.43-3.61-3s-.72,1.86-.72,1.86l-.52,0s0-.46-.12-1.08-.12-1.38-.16-2a6.88,6.88,0,0,0-1.4-4.21,16.31,16.31,0,0,1-1.94-3.58,6.5,6.5,0,0,1-.49-3.21,18,18,0,0,0,12.81,10.54c9.56,2,8.66-5.58,8.6-6A10.42,10.42,0,0,1,267.74,159.51Z"/><path class="cls-33" d="M232.12,208.75s-.53-3.31.52-4.6c.14.41.24.65.24.65A8.84,8.84,0,0,0,232.12,208.75Z"/><path class="cls-29" d="M251.62,186.29l0,0s.29,3.74-3.24,10-11.08,21.13-14.8,20.72c-2-.22-2.66-3.33-3.44-3.89-1.7-1.21-2.85-5.53-4.46-9.84a71.65,71.65,0,0,1-2.61-9.57l-.09.16a3,3,0,0,0-.31,2.19,91.1,91.1,0,0,0,2.54,9.9,94.87,94.87,0,0,0,4.45,9.72,4.6,4.6,0,0,0,5.39,3v0a3.37,3.37,0,0,0,.34-.09,7.92,7.92,0,0,0,2.65-2.49h0a62.94,62.94,0,0,0,4.27-6.09c.35-.52,8.89-13.55,9.65-18C252.65,187.76,251.76,186.47,251.62,186.29Z"/><polygon class="cls-15" points="106.98 272 130.91 286.63 135.94 283.58 112.02 268.96 106.98 272"/><polygon class="cls-5" points="135.94 260.89 135.94 280.81 130.91 283.84 130.91 263.93 135.94 260.89"/><polygon class="cls-34" points="112.02 246.26 112.02 266.19 106.98 269.22 106.98 249.3 112.02 246.26"/><polygon class="cls-5" points="135.94 260.89 135.94 280.81 130.91 283.84 130.91 263.93 135.94 260.89"/><polygon class="cls-4" points="106.98 249.3 130.91 263.93 135.94 260.89 112.02 246.26 106.98 249.3"/><polygon class="cls-34" points="130.91 283.84 106.99 269.22 106.99 249.3 130.91 263.93 130.91 283.84"/><polygon class="cls-5" points="106.98 249.3 118.94 266.57 130.91 263.93 106.98 249.3"/><path class="cls-35" d="M126.35,253.68v3.92a.64.64,0,0,1-.43.61.54.54,0,0,1-.22.05.65.65,0,0,1-.66-.66v-3.92a1.1,1.1,0,0,0-.51-.92l-6-3.66a.44.44,0,0,0-.43,0,.31.31,0,0,0-.09.07h0a.45.45,0,0,0-.1.3v3a.66.66,0,0,1-.41.6.54.54,0,0,1-.25.06.66.66,0,0,1-.65-.66v-3a1.7,1.7,0,0,1,.89-1.52,1.19,1.19,0,0,1,.43-.16,1.67,1.67,0,0,1,1.32.2l6,3.66A2.37,2.37,0,0,1,126.35,253.68Z"/><polygon class="cls-36" points="120.3 265.87 120.3 267.9 119.85 268.18 119.85 266.14 120.3 265.87"/><polygon class="cls-37" points="117.41 264.65 119.85 266.14 120.3 265.87 117.86 264.38 117.41 264.65"/><polygon class="cls-38" points="119.85 268.18 117.41 266.68 117.41 264.65 119.85 266.14 119.85 268.18"/><path class="cls-39" d="M126.35,253.68v3.92a.64.64,0,0,1-.43.61v-3.93a2.69,2.69,0,0,0-.58-2l-7.44-4.53a1.67,1.67,0,0,1,1.32.2l6,3.66A2.37,2.37,0,0,1,126.35,253.68Z"/><path class="cls-39" d="M118,249.17a.45.45,0,0,0-.1.3v3a.66.66,0,0,1-.41.6v-3A1,1,0,0,1,118,249.17Z"/><path class="cls-17" d="M138.24,251.56s.38,1.5.59,2.78.29,2.9.43,4.24a18.43,18.43,0,0,0,2,5.35,5.2,5.2,0,0,0,2.81,2,9.1,9.1,0,0,0,4.33-.08,2.09,2.09,0,0,0,1.11-1.11"/><path class="cls-17" d="M171.39,246.64c0,.84-1.24,1.42-2.53,1.53a12.64,12.64,0,0,1-4.14-.58,20.33,20.33,0,0,1-3.22-1.22,4.14,4.14,0,0,0-2.36-.21s0,.14,0,.3a10.82,10.82,0,0,1-5.76-1h0a10.72,10.72,0,0,1,0-1.22c0-.49.11-1.21.11-1.21l17.91,3Z"/><path class="cls-40" d="M150,263.31c0,.16,0,.31-.07.46a2.25,2.25,0,0,1-1.54,1.81c-1.69.58-4.8.27-6.33-1.39s-2.62-5.95-2.62-8.52a11.35,11.35,0,0,0-1.35-4.93h7a1.52,1.52,0,0,1,.16.23c1.2,1.68,4.33,8.08,4.64,10.14A10.1,10.1,0,0,1,150,263.31Z"/><path class="cls-41" d="M150,263.31a.33.33,0,0,1-.07-.17,34.55,34.55,0,0,0-2.75-6.57c-.84-1.69-2.42-4.77-2.42-4.77s.21-.36.47-.83c1.2,1.68,4.33,8.08,4.64,10.14A10.1,10.1,0,0,1,150,263.31Z"/><path class="cls-42" d="M149.93,263.77a2.25,2.25,0,0,1-1.54,1.81c-1.68.58-4.8.27-6.33-1.39s-2.62-6-2.62-8.52a11.35,11.35,0,0,0-1.35-4.93h2.84l.22,1.47s.08,6,1.49,8.9a5.7,5.7,0,0,0,5.13,3.49c1.12-.08,1.84-.23,2.15-.82Z"/><path class="cls-40" d="M171.4,246.37a1.11,1.11,0,0,1-.63.89c-1.17.54-3.62.36-5.11,0s-4.26-1.67-5.73-1.83-4.31-.41-5-.61a2,2,0,0,1-1.63-2,4.45,4.45,0,0,1,.55-2.51l1.15.07,6.78.43h.15l3.46,1.24c1.11.38,3.42.74,4.94,2.15a5.18,5.18,0,0,1,.61.68h0A2.1,2.1,0,0,1,171.4,246.37Z"/><path class="cls-41" d="M170.92,244.91c-1.11-.95-3.43-1.66-5.32-2.14s-3.76-1.09-3.76-1.09-.05-.37-.08-.85h.15l3.46,1.24c1.11.38,3.42.74,4.94,2.15A5.18,5.18,0,0,1,170.92,244.91Z"/><path class="cls-42" d="M171.4,246.36a1.13,1.13,0,0,1-.63.9c-1.17.53-3.62.36-5.11,0s-4.26-1.67-5.72-1.83-4.32-.41-5-.61a2,2,0,0,1-1.62-2,4.44,4.44,0,0,1,.54-2.52l1.15.07,0,.37s-1.06,1.47-.36,2.59,3.35,1,5,1.14,3.93,1.5,6.16,1.88,4.9.71,5.69,0Z"/><path class="cls-28" d="M166.18,203.82c-.27,1.14-.5,2.24-.69,3.31a.21.21,0,0,0,0,.06c-.18,1-.33,2.05-.47,3,0,0,0,.06,0,.09s0,.27-.08.52-.07.48-.1.7c-.3,1.93-.84,5.9-1.31,11.31a.49.49,0,0,0,0,.12c-.19,1.8-.36,4.23-.5,6.81,0,.59-.07,1.19-.09,1.8-.17,3.37-.3,6.82-.38,9.34a1.75,1.75,0,0,1-.93,1.5,3.21,3.21,0,0,1-1.47.39,10.89,10.89,0,0,1-3.63-.48,8,8,0,0,1-2-1,1.92,1.92,0,0,1-.77-1.63c.06-2.13.19-7.79,0-13.45-.28-7.17-.83-20.67-.83-20.67l2.52-22.64,4.7-1c-.24-1.32-.5-2.83-.69-3.89-.14-.82-.23-1.38-.23-1.38h9.19s0,.13,0,.39C168.43,179.34,168.91,192.89,166.18,203.82Z"/><path class="cls-43" d="M166.18,203.82c-.27,1.14-.5,2.24-.69,3.31.08-.78.93-8.26,1.31-12.07.4-4-.25-16.64-.25-16.64l1.77-1.49C168.43,179.34,168.91,192.89,166.18,203.82Z"/><path class="cls-29" d="M162.17,180a141.15,141.15,0,0,1-3.36,26.45c-1.91,8.11-2.3,24.27-2.32,35.79a7.78,7.78,0,0,1-2-1,1.93,1.93,0,0,1-.78-1.63c.06-2.13.19-7.79,0-13.45-.28-7.17-.84-20.67-.84-20.67l2.53-22.64,4.7-1c-.25-1.32-.51-2.83-.69-3.89Z"/><path class="cls-28" d="M158.19,181.17a103.26,103.26,0,0,1-5.4,34.4v0c-1.15,2.88-2,5.2-2.28,6.19-.51,2-2.84,22.42-3.4,27.34a5.35,5.35,0,0,1-.78,2.26,4.23,4.23,0,0,1-4.27,2.29,9.62,9.62,0,0,1-1.85-.37,13.29,13.29,0,0,1-2.37-1,1.77,1.77,0,0,1-1-1.64c.16-5.28.85-28.41,1.28-31.29.49-3.26,2.49-10.37,3.44-23.42a14.09,14.09,0,0,0-.59-5.59,15,15,0,0,1-.15-9.08l1.37.51c0-1.23-.08-1.79-.08-1.79h.45l16.1.34Z"/><path class="cls-29" d="M147.76,190.93c.48,4.59-4.75,25-5.3,30.19s-2.24,32.18-2.24,32.18h0a13.29,13.29,0,0,1-2.37-1,1.77,1.77,0,0,1-1-1.64c.16-5.28.85-28.41,1.28-31.29.49-3.26,2.49-10.37,3.44-23.42a14.09,14.09,0,0,0-.59-5.59,15,15,0,0,1-.15-9.08l1.37.51c0-1.23-.08-1.79-.08-1.79h.45c2.92,1.61,5.39,3.15,5.39,3.15A27.21,27.21,0,0,0,147.76,190.93Z"/><path class="cls-44" d="M140.75,180.91a10.79,10.79,0,0,0-.26,1.25.63.63,0,0,0,.26.6,17.23,17.23,0,0,0,3.47,1.65,17.86,17.86,0,0,0,7.4.79c.91-.08,9.8-2,15.12-5.41a4,4,0,0,0,1.77-4v0C168.33,174.69,140.75,180.91,140.75,180.91Z"/><path class="cls-11" d="M175,154.33a9,9,0,0,1-1.12.79l-.05,0a.5.5,0,0,0-.12.08,20.61,20.61,0,0,1-6.46,2.1c0,1-.06,2-.08,3a32.45,32.45,0,0,0,.48,6.6c.33,1.84.72,4.11,1,5.75.51,3.25-.37,5.61-2,6.58h0l0,0a44.27,44.27,0,0,1-14.47,5.3,13.6,13.6,0,0,1-1.56.21,13,13,0,0,1-3.35-.14,10.62,10.62,0,0,1-1.36-.29l-.42-.13a6.67,6.67,0,0,1-1.41-.65c-2.12-1.36-2.29-2.39-2.44-3.59-.12-1,1.27-6.29,1.49-8,.07-.45.1-.72.1-.72s0-.27,0-.4a11.05,11.05,0,0,0,.05-1.79.45.45,0,0,0,0-.06,5.11,5.11,0,0,0-.2-1.11c0-.11-.07-.21-.12-.32a0,0,0,0,0,0,0,.53.53,0,0,0,0-.12c-2.12-1-4-3.47-6-8.11s-1.75-14-1.11-17.7a8.06,8.06,0,0,1,.29-1.26,9.48,9.48,0,0,1,2.65-3.27h0a29.53,29.53,0,0,1,3.58-2.72l.12-.08a26.53,26.53,0,0,1,2.74-1.58c.92-.47,2.1-1,3.76-1.65.59-.24,1.2-.45,1.82-.64,1.14-.35,2.31-.63,3.5-.88,1.82-.38,3.67-.68,5.44-1,.3,0,.61,0,.91,0a12.94,12.94,0,0,1,10.57,7.24c1.69,3.35,4,8.44,4.53,11.77C176.29,151.51,176,153.3,175,154.33Z"/><path class="cls-45" d="M163.59,157.34a35.1,35.1,0,0,1-9.88,6.62,22.25,22.25,0,0,1-8.81,1.6,3.55,3.55,0,0,1-1.79-.16c-1.24-.57-3.07-2.61-4.81-8.08-1.45-4.54-1-12.12-.21-16.89a10.22,10.22,0,0,1,6.89-5.17h0a8.6,8.6,0,0,0,4.76-.17,5.68,5.68,0,0,1,4,.13,29.67,29.67,0,0,0,3.08,1.09l1.16.85.79,12.4,1.34-3.11-1-10.55-3.95-5.05-4.36-.52c-.62.19-1.23.4-1.82.64a33.75,33.75,0,0,0-5.2,2.43l-.12.06-.41.26-.48.29a2.9,2.9,0,0,1-.29.19l-.12.08a29.53,29.53,0,0,0-3.58,2.72h0a9.48,9.48,0,0,0-2.65,3.27l-.07.22a10.57,10.57,0,0,0-.22,1h0c-.64,3.75-.87,13.19,1.11,17.7s3.88,7.15,6,8.11c0,0,11.13,1.55,21.09-10Z"/><path class="cls-46" d="M149.81,124.41v4.9s5,3.62,7.67,3.09c1.15-.22,1.75-1.69,1.51-3.76l-2.42-.49Z"/><path class="cls-11" d="M158.08,132.12l2,2.67s1-3.34-.93-5.39-1.94-.28-1.94-.28S159,131.15,158.08,132.12Z"/><path class="cls-23" d="M163.65,117.89a28.19,28.19,0,0,1-.44,7.85c-.85,3.76-1.1,4.6-2.62,5.27s-2.87.74-5.41-.9a12.74,12.74,0,0,1-3.93-4.29s-.37.23-1.27-.79a5.45,5.45,0,0,1-1.7-4.58,15.21,15.21,0,0,1,2.24-7.76c1.7-2.85,6.9-1.94,9.26-.73S163.2,115.46,163.65,117.89Z"/><path class="cls-31" d="M165.71,118.07c-2.6,4.6-9.08,1.57-9.08,1.57-.48,2-1.87,2.18-2.54,2.55s-.81,2.3-.81,2.3h-.61a14.2,14.2,0,0,0-.33-2.91,1.72,1.72,0,0,0-3-.3c-.82,1.27.12,2.69.66,3.75a4.78,4.78,0,0,1-.16,2.37,8,8,0,0,1-1.65-3,20.61,20.61,0,0,1,0-10.65,4.93,4.93,0,0,1,.53-1.29c2-3.36,7.66-4,9.88-3.25,1.92.65,6.67,2.81,7.55,5.88A3.69,3.69,0,0,1,165.71,118.07Z"/><path class="cls-28" d="M165.9,209.65c0,.24-.07.48-.11.71C165.83,210.08,165.86,209.84,165.9,209.65Z"/><path class="cls-28" d="M166,209a.28.28,0,0,0,0,.09A.31.31,0,0,1,166,209Z"/><path class="cls-47" d="M145.85,151.94A31.28,31.28,0,0,1,145,145c.15-2.76,1.68-.29,1.82,2a54.22,54.22,0,0,0,1.47,7.12"/><path class="cls-11" d="M149.81,128.81a4.73,4.73,0,0,0-.55,1,8.66,8.66,0,0,0-.34,1.13,19.1,19.1,0,0,0,8.28,4.94l0-3.46S152.3,131.77,149.81,128.81Z"/><path class="cls-23" d="M153.34,155.16s-2.07-.21-6,1.45a23.3,23.3,0,0,1-1.53-4.67,1.09,1.09,0,0,1,.08-.15c1.09-1.75,7-.66,7-.66Z"/><path class="cls-23" d="M166.77,148.49a39.89,39.89,0,0,0-4.05.39c.1-.33.23-4.5,3.36-4.86.26,1.35.45,2.57.56,3.39,0,.2,0,.36.06.51a2.81,2.81,0,0,1,0,.36Z"/><path class="cls-16" d="M167.23,157.32a21.62,21.62,0,0,1-1.39,1.83h0a36.67,36.67,0,0,1-7,6.45,31.53,31.53,0,0,1-2.77,1.79l-.17.11A15.93,15.93,0,0,0,148,179.79a11.79,11.79,0,0,0,0,3.41c.4,1.09,1.77,1.44,2.57,1.55a13,13,0,0,1-3.35-.14,10.62,10.62,0,0,1-1.36-.29l-.42-.13a5.86,5.86,0,0,1-1.41-.66c-2.12-1.35-2.29-2.38-2.44-3.58-.12-1,1.27-6.29,1.49-8,.07-.45.1-.72.1-.72a11.29,11.29,0,0,0,.1-2.19.45.45,0,0,0,0-.06,5.11,5.11,0,0,0-.2-1.11c0-.11-.07-.21-.12-.32a0,0,0,0,0,0,0,.53.53,0,0,0,0-.12s6.9,1,14.7-4.28a31.94,31.94,0,0,0,6.39-5.72h.3A20.87,20.87,0,0,0,167.23,157.32Z"/><path class="cls-16" d="M143.22,170.57s-3.11,8.49-3,10.67,7,3.37,7,3.37l-2.94-7.84Z"/><path class="cls-47" d="M163.75,137.12s.44-.55,1.36.71,4.25,9,4.31,10.73-10,.81-10,.81,4.69-.8,7.32-.89C166.77,148.48,165.88,140,163.75,137.12Z"/><path class="cls-45" d="M147.38,156.61s-1.08,1.24-.86,2,1.42-.4,4.07-1,10.28-.47,10.28-.47a65.28,65.28,0,0,0-7.43-1.29l-.1-.68A12,12,0,0,0,147.38,156.61Z"/><path class="cls-28" d="M157.24,132.44l0,3.46,1.2,1.1,1.67-.54v-1.67l-2-2.67A1.39,1.39,0,0,1,157.24,132.44Z"/><path class="cls-28" d="M158.73,149.56c-.14-6.8-.34-12.56-.34-12.56l1.68-.54c.56,2.55,1.34,7.39,2.1,12.5C162.17,149,160.75,149.18,158.73,149.56Z"/><path class="cls-28" d="M164.6,167.8l-1.7,4.45a.36.36,0,0,1-.58.16l-3.17-2.61a1.33,1.33,0,0,1-.47-1.08c0-.87.1-1.92.12-3.12,0-1,0-2.2,0-3.43h0c.21-.16.42-.31.62-.49s.39-.32.58-.48c.39-.32.83-.7,1.28-1.11.24-.23.49-.45.73-.7s.28-.27.42-.41.46-.48.7-.73c.09-.1.19-.19.28-.3.16,1.18.32,2.3.46,3.32.37,2.78.66,4.91.77,5.76A1.59,1.59,0,0,1,164.6,167.8Z"/><path class="cls-48" d="M163.92,161.26a37.12,37.12,0,0,1-5.12,4.34c0-1,0-2.2,0-3.43h0c.21-.16.42-.31.62-.49.85-.77,1.73-1.43,2.59-2.29.14-.12.28-.27.42-.41s.46-.48.7-.73c.09-.1.19-.19.28-.3C163.62,159.12,163.78,160.24,163.92,161.26Z"/><path class="cls-18" d="M165.71,118.07c-2.6,4.6-9.08,1.57-9.08,1.57-.48,2-1.87,2.18-2.54,2.55s-.81,2.3-.81,2.3h-.61a14.2,14.2,0,0,0-.33-2.91,1.72,1.72,0,0,0-3-.3c-.82,1.27.12,2.69.66,3.75a4.78,4.78,0,0,1-.16,2.37,8,8,0,0,1-1.65-3,20.61,20.61,0,0,1,0-10.65,4.93,4.93,0,0,1,.53-1.29,31.65,31.65,0,0,0,7.5,4.84c4.07,1.71,7.22,1.35,8.24.47a4,4,0,0,0,1.69-2.67h0A3.69,3.69,0,0,1,165.71,118.07Z"/><path class="cls-18" d="M76,180.43c0-.22.07-.46.11-.7C76,179.92,76,180.16,76,180.43Z"/><path class="cls-18" d="M76.13,179.21s0-.06,0-.09A.66.66,0,0,0,76.13,179.21Z"/><path class="cls-15" d="M231.8,350.39a.22.22,0,0,0,0-.38l-15.25-9.38,0,0,0,0-.1-.06-.07,0a1.57,1.57,0,0,0-.47-.13,1.73,1.73,0,0,0-.91.18l-2.31-1.44a4.88,4.88,0,0,0,2-3.56l.06-1.92c.1-3.54-4.71-6.56-10.75-6.73s-10.95,2.51-11.12,6V333h0l-.06,1.9h0v.3h0c.17,3.42,4.88,6.27,10.75,6.44a16.23,16.23,0,0,0,6.73-1.15.63.63,0,0,0,.11.12l.15.1,3.07,1.9a2.16,2.16,0,0,0,.11,1,1.57,1.57,0,0,0,.5.68,1.17,1.17,0,0,0,.26.17l13,8a.83.83,0,0,0,.85,0Zm-28.21-11.7c-5.07-.15-9.12-2.69-9-5.67a5.15,5.15,0,0,1,1.11-1.88,3.19,3.19,0,0,0-.73,1.93,4,4,0,0,0,0,.49s0,.07,0,.12a2.33,2.33,0,0,0,.08.36l.05.15a2.92,2.92,0,0,0,.14.31l.06.16.19.32a.94.94,0,0,1,.09.12l.32.42a1.14,1.14,0,0,1,.11.11l.28.28a2.11,2.11,0,0,0,.23.19,1.49,1.49,0,0,0,.14.12,9.62,9.62,0,0,0,3,1.55,14.46,14.46,0,0,0,4,.66c4.9.14,8.94-2,9-4.84.05-1.78-1.5-3.39-3.88-4.37a.43.43,0,0,0-.12-.05l-.77-.28a7.76,7.76,0,0,1,4.86,3.44,3.42,3.42,0,0,1,.21,1.23C212.87,336.54,208.68,338.84,203.59,338.69Z"/><path class="cls-49" d="M214.91,328.46l-2.59-2.69-7.46-1.84-7.56,1.4-2.74,2.53-.71,1.58,1.08.38s1.28-5.13,9.9-4.88,9.59,5.45,9.59,5.45l1.11-.31Z"/><path class="cls-16" d="M215.52,330.71a6.46,6.46,0,0,0-2.16-2.62,3.73,3.73,0,0,1,.74,2.3c-.09,3.1-4.45,5.49-9.75,5.33s-9.51-2.79-9.42-5.9a3.82,3.82,0,0,1,.88-2.25,6.33,6.33,0,0,0-2.42,2.72l-.26-.61-.07,2.08h0v.32l0,0c.17,3.56,5.07,6.53,11.19,6.71,6.3.19,11.49-2.65,11.6-6.34l0-2Z"/><path class="cls-50" d="M204.72,323.42c-6.3-.19-11.49,2.66-11.6,6.35a4.19,4.19,0,0,0,.1,1c.73,3.24,5.39,5.85,11.1,6s10.52-2.16,11.44-5.36a4.09,4.09,0,0,0,.15-1C216,326.75,211,323.6,204.72,323.42Zm-.37,12.3c-5.29-.15-9.51-2.79-9.42-5.9a3.82,3.82,0,0,1,.88-2.25c1.55-1.93,5-3.2,8.87-3.09s7.25,1.59,8.68,3.61a3.73,3.73,0,0,1,.74,2.3C214,333.49,209.65,335.88,204.35,335.72Z"/><path class="cls-11" d="M204.72,323.42c-6.3-.19-11.49,2.66-11.6,6.35a4.19,4.19,0,0,0,.1,1c.73,3.24,5.39,5.85,11.1,6s10.52-2.16,11.44-5.36a4.09,4.09,0,0,0,.15-1C216,326.75,211,323.6,204.72,323.42Zm-.37,12.3c-5.29-.15-9.51-2.79-9.42-5.9a3.82,3.82,0,0,1,.88-2.25c1.55-1.93,5-3.2,8.87-3.09s7.25,1.59,8.68,3.61a3.73,3.73,0,0,1,.74,2.3C214,333.49,209.65,335.88,204.35,335.72Z"/><path class="cls-16" d="M217.28,338.34l-.22.32h0l-1,1.44-.25.37-4.28-2.67h0l-.16-.1a.88.88,0,0,1-.29-.41A1.11,1.11,0,0,1,211,337h0a1.52,1.52,0,0,1,.14-.85,1.44,1.44,0,0,1,.74-.72.91.91,0,0,1,.48-.08.69.69,0,0,1,.28.08l.05,0,.05,0h0Z"/><path class="cls-11" d="M217.28,338.34l-.22.32h0l-5.15-3.2a.91.91,0,0,1,.48-.08.69.69,0,0,1,.28.08l.05,0,.05,0h0Z"/><path class="cls-49" d="M216.08,340.11l-.25.37-4.28-2.67h0l-.16-.1a.88.88,0,0,1-.29-.41A1.11,1.11,0,0,1,211,337Z"/><path class="cls-51" d="M230.91,345.82l-.62,1.1-1.6,2.82-13-8.06h0a1.78,1.78,0,0,1-.27-.17,1.56,1.56,0,0,1-.51-.72,2.44,2.44,0,0,1,.13-1.93,2.38,2.38,0,0,1,.44-.66h0a2,2,0,0,1,1.68-.73,1.33,1.33,0,0,1,.48.14l.08,0,.1.06,0,0,0,0Z"/><path class="cls-52" d="M230.91,345.82l-.62,1.1-1.57-.47-13.29-8.25h0a2,2,0,0,1,1.68-.73,1.33,1.33,0,0,1,.48.14l.08,0,.1.06,0,0,0,0Z"/><path class="cls-53" d="M231.57,348.64a2.07,2.07,0,0,1-2.6,1.27h0a1.2,1.2,0,0,1-.27-.16,1.56,1.56,0,0,1-.51-.72,2.5,2.5,0,0,1,.12-1.94,2.25,2.25,0,0,1,2.13-1.39,1.32,1.32,0,0,1,.48.13l.08,0,.1.07,0,0A2.16,2.16,0,0,1,231.57,348.64Z"/><path class="cls-54" d="M213.8,330.42c-.09,2.93-4.3,5.18-9.4,5s-9.17-2.65-9.08-5.58,4.29-5.18,9.39-5S213.88,327.48,213.8,330.42Z"/><path class="cls-54" d="M209.76,325.86c-9.2.2-11.86,4.73-12.63,7.3a4.13,4.13,0,0,1-1.81-3.29c.09-2.93,4.29-5.18,9.4-5A14.16,14.16,0,0,1,209.76,325.86Z"/><path class="cls-55" d="M213.32,330.4c-.09,2.78-4.07,4.92-8.91,4.78s-8.69-2.51-8.61-5.29c0-.09,0-.16,0-.25.27,2.61,4,4.76,8.59,4.9s8.58-1.87,8.89-4.52A2.42,2.42,0,0,1,213.32,330.4Z"/><path class="cls-56" d="M213.37,84.42v26a2.13,2.13,0,0,1-.92,1.75l-.08.06-8.49,5.23-17.55,10.81a.81.81,0,0,1-.92,0L182,126.13a1,1,0,0,1-.49-.87V100.14a2.82,2.82,0,0,1,1.35-2.41l25.78-15.9a1,1,0,0,1,1.09,0l3.27,2a.39.39,0,0,1,.11.06A.66.66,0,0,1,213.37,84.42Z"/><path class="cls-9" d="M213.37,84.42v26a2.13,2.13,0,0,1-.92,1.75l-.08.06-8.49,5.23-17.55,10.81a.81.81,0,0,1-.92,0,.84.84,0,0,1-.38-.71V102.21a2.66,2.66,0,0,1,1.25-2.26l26.11-16.09a.61.61,0,0,1,.58,0,.39.39,0,0,1,.11.06A.66.66,0,0,1,213.37,84.42Z"/><path class="cls-11" d="M200.48,100.59l1.74,2.6a.39.39,0,0,0,.47.15l3.77-1.46a.4.4,0,0,1,.47.59l-3,4.53a.37.37,0,0,0-.06.29l.78,4.1a.4.4,0,0,1-.39.47l-4,0a.4.4,0,0,0-.29.12l-3.68,3.89a.39.39,0,0,1-.67-.33l.64-4.12A.38.38,0,0,0,196,111l-2.85-1.27a.4.4,0,0,1-.06-.69l4.53-3.06a.4.4,0,0,0,.15-.19l2-5.15A.4.4,0,0,1,200.48,100.59Z"/><path class="cls-57" d="M92.84,189.77v17.51a1.45,1.45,0,0,1-.62,1.19s0,0,0,0L86.44,212l-11.83,7.29a.54.54,0,0,1-.61,0l-2.32-1.43a.67.67,0,0,1-.33-.58V200.36a1.9,1.9,0,0,1,.9-1.62L89.63,188a.71.71,0,0,1,.73,0l2.21,1.35s.05,0,.08,0A.45.45,0,0,1,92.84,189.77Z"/><path class="cls-58" d="M92.84,189.77v17.51a1.45,1.45,0,0,1-.62,1.19s0,0,0,0L86.44,212l-11.83,7.29a.54.54,0,0,1-.61,0,.57.57,0,0,1-.27-.48V201.76a1.83,1.83,0,0,1,.85-1.53l17.6-10.84a.39.39,0,0,1,.39,0s.05,0,.08,0A.45.45,0,0,1,92.84,189.77Z"/><ellipse class="cls-11" cx="83.47" cy="201.2" rx="3.37" ry="1.87" transform="translate(-127.79 148.11) rotate(-53.36)"/><path class="cls-11" d="M89.15,206.58l-11.36,6.83c0-3.13,2.54-7.18,5.68-9.07a4.62,4.62,0,0,1,4-.74A2.91,2.91,0,0,1,89.15,206.58Z"/><path class="cls-59" d="M92.84,248.59v17.52a1.43,1.43,0,0,1-.62,1.18l0,0-5.73,3.53-11.83,7.28a.54.54,0,0,1-.61,0l-2.32-1.43a.69.69,0,0,1-.33-.59V259.19a1.88,1.88,0,0,1,.9-1.62l17.38-10.72a.71.71,0,0,1,.73,0l2.21,1.34.08,0A.45.45,0,0,1,92.84,248.59Z"/><path class="cls-60" d="M92.84,248.59v17.52a1.43,1.43,0,0,1-.62,1.18l0,0-5.73,3.53-11.83,7.28a.54.54,0,0,1-.61,0,.58.58,0,0,1-.27-.48V260.58a1.81,1.81,0,0,1,.85-1.52l17.6-10.85a.45.45,0,0,1,.39,0l.08,0A.45.45,0,0,1,92.84,248.59Z"/><path class="cls-61" d="M68.83,240.49V258a1.45,1.45,0,0,1-.62,1.19l0,0-5.73,3.53L50.6,270.05a.56.56,0,0,1-.62,0,.57.57,0,0,1-.26-.48V252.49a1.8,1.8,0,0,1,.85-1.53l17.59-10.84a.44.44,0,0,1,.4,0l.07,0A.43.43,0,0,1,68.83,240.49Z"/><polygon class="cls-11" points="89.42 255.57 89.42 256.79 83.75 263.45 78.06 263.88 78.06 262.67 89.42 255.57"/><polygon class="cls-11" points="83.75 264.15 89.42 257.49 89.42 263.71 78.06 270.81 78.06 264.59 83.75 264.15"/><path class="cls-62" d="M58.53,106v17.52a1.44,1.44,0,0,1-.61,1.19s0,0-.06,0l-5.72,3.53L40.31,135.6a.56.56,0,0,1-.62,0l-2.32-1.43a.67.67,0,0,1-.33-.58V116.64A1.88,1.88,0,0,1,38,115L55.33,104.3a.71.71,0,0,1,.73,0l2.2,1.35a.12.12,0,0,1,.08,0A.42.42,0,0,1,58.53,106Z"/><path class="cls-63" d="M58.53,106v17.52a1.44,1.44,0,0,1-.61,1.19s0,0-.06,0l-5.72,3.53L40.31,135.6a.58.58,0,0,1-.88-.49V118a1.82,1.82,0,0,1,.84-1.53l17.6-10.84a.39.39,0,0,1,.39,0,.12.12,0,0,1,.08,0A.42.42,0,0,1,58.53,106Z"/><path class="cls-64" d="M74.4,77V89.3a1,1,0,0,1-.44.83l0,0-4,2.47-8.27,5.1a.37.37,0,0,1-.43,0,.4.4,0,0,1-.19-.33V85.43a1.25,1.25,0,0,1,.6-1.06l12.3-7.59a.31.31,0,0,1,.28,0s0,0,.05,0A.29.29,0,0,1,74.4,77Z"/><path class="cls-64" d="M161.08,23.72V36a1,1,0,0,1-.44.83l0,0-4,2.47-8.27,5.1a.37.37,0,0,1-.43,0,.38.38,0,0,1-.19-.33V32.1A1.27,1.27,0,0,1,148.3,31l12.31-7.59a.31.31,0,0,1,.28,0l.05,0A.33.33,0,0,1,161.08,23.72Z"/><path class="cls-65" d="M186.44.46V18.79a1.49,1.49,0,0,1-.65,1.24l0,0-6,3.69-12.37,7.63a.57.57,0,0,1-.65,0,.6.6,0,0,1-.27-.5V13a1.86,1.86,0,0,1,.88-1.59L185.74.07a.47.47,0,0,1,.41,0l.09.05A.46.46,0,0,1,186.44.46Z"/><path class="cls-65" d="M59.72,258.76v18.33a1.49,1.49,0,0,1-.65,1.24l-.06,0-6,3.69-12.37,7.63a.57.57,0,0,1-.65,0,.58.58,0,0,1-.27-.5V271.31a1.86,1.86,0,0,1,.88-1.59L59,258.37a.47.47,0,0,1,.41,0l.09.05A.48.48,0,0,1,59.72,258.76Z"/><path class="cls-11" d="M48.43,128.09l-5.12-2c-.48-.19-.48-1,0-1.75s1.27-1.24,1.75-1L48,124.42l5.7-12.65a2.26,2.26,0,0,1,1.7-1.42c.58,0,.76.66.4,1.45Z"/><path class="cls-66" d="M300.17,122.43V140a1.41,1.41,0,0,1-.62,1.18l-.05,0-5.72,3.53L282,152a.54.54,0,0,1-.62,0L279,150.55a.69.69,0,0,1-.33-.59V133a1.87,1.87,0,0,1,.91-1.62L297,120.68a.73.73,0,0,1,.73,0l2.2,1.34.08,0A.45.45,0,0,1,300.17,122.43Z"/><path class="cls-67" d="M300.17,122.43V140a1.41,1.41,0,0,1-.62,1.18l-.05,0-5.72,3.53L282,152a.54.54,0,0,1-.62,0,.56.56,0,0,1-.26-.47V134.42a1.8,1.8,0,0,1,.84-1.52l17.6-10.85a.42.42,0,0,1,.39,0l.08,0A.45.45,0,0,1,300.17,122.43Z"/><path class="cls-54" d="M320,126.6v20.89a1.73,1.73,0,0,1-.74,1.42l-.06,0-6.83,4.21-14.11,8.69a.67.67,0,0,1-.73,0,.7.7,0,0,1-.31-.58V140.9a2.15,2.15,0,0,1,1-1.81l21-12.93a.45.45,0,0,1,.46,0l.1,0A.53.53,0,0,1,320,126.6Z"/><path class="cls-54" d="M206.32,5V25.84a1.7,1.7,0,0,1-.74,1.41l-.06,0-6.83,4.21-14.1,8.69a.65.65,0,0,1-.74,0,.69.69,0,0,1-.31-.57V19.25a2.17,2.17,0,0,1,1-1.82l21-12.93a.53.53,0,0,1,.47,0l.09,0A.53.53,0,0,1,206.32,5Z"/><path class="cls-54" d="M194.93,163.57v20.88a1.71,1.71,0,0,1-.74,1.42l-.06,0-6.83,4.21-14.1,8.69a.68.68,0,0,1-.74,0,.72.72,0,0,1-.31-.58V177.87a2.16,2.16,0,0,1,1-1.82l21-12.93a.47.47,0,0,1,.47,0l.09,0A.51.51,0,0,1,194.93,163.57Z"/><path class="cls-11" d="M288,140.47a1.46,1.46,0,1,1-1.45-1.67A1.57,1.57,0,0,1,288,140.47Z"/><path class="cls-11" d="M292.59,137.59a1.46,1.46,0,1,1-2.89,0,1.46,1.46,0,1,1,2.89,0Z"/><path class="cls-11" d="M297.21,134.72a1.46,1.46,0,1,1-1.45-1.67A1.56,1.56,0,0,1,297.21,134.72Z"/><ellipse class="cls-15" cx="198.01" cy="291.49" rx="8.3" ry="4.21"/><path class="cls-68" d="M189.71,284.52v4.21c0,2.33,3.71,4.22,8.3,4.22s8.29-1.89,8.29-4.22v-4.21Z"/><ellipse class="cls-9" cx="198.01" cy="284.52" rx="8.3" ry="4.21"/><path class="cls-11" d="M201.74,284.52c0,1.05-1.67,1.9-3.73,1.9s-3.74-.85-3.74-1.9,1.67-1.9,3.74-1.9S201.74,283.47,201.74,284.52Z"/><ellipse class="cls-15" cx="181.41" cy="301.47" rx="8.3" ry="4.21"/><path class="cls-69" d="M173.11,294.5v4.21c0,2.33,3.72,4.21,8.3,4.21s8.3-1.88,8.3-4.21V294.5Z"/><ellipse class="cls-10" cx="181.41" cy="294.5" rx="8.3" ry="4.21"/><polygon class="cls-11" points="179.91 291.23 186.38 295.18 177.34 296.34 179.91 291.23"/><path class="cls-15" d="M222.9,281.51c0,2.33-3.72,4.22-8.3,4.22s-8.3-1.89-8.3-4.22,3.72-4.21,8.3-4.21S222.9,279.19,222.9,281.51Z"/><path class="cls-66" d="M206.3,274.54v4.21c0,2.33,3.72,4.22,8.3,4.22s8.3-1.89,8.3-4.22v-4.21Z"/><path class="cls-67" d="M222.9,274.54c0,2.33-3.72,4.21-8.3,4.21s-8.3-1.88-8.3-4.21,3.72-4.21,8.3-4.21S222.9,272.21,222.9,274.54Z"/><polygon class="cls-11" points="209.48 273.35 215.94 277.3 218.49 272.14 209.48 273.35"/></g></g></g></svg>